<svg width="279" height="55" viewBox="0 0 279 55" fill="none" xmlns="http://www.w3.org/2000/svg">
<path d="M9.324 45H15.822L21.384 26.55L26.964 45H33.444L42.012 15.3H35.514L29.898 37.008L23.58 15.3H19.206L12.87 37.008L7.254 15.3H0.774L9.324 45ZM51.2331 45.576C52.4931 45.576 53.6691 45.318 54.7611 44.802C55.8651 44.274 56.8371 43.53 57.6771 42.57V45H63.2031V26.568H57.6771V28.818C56.9451 27.93 56.0151 27.24 54.8871 26.748C53.7591 26.244 52.5411 25.992 51.2331 25.992C49.4571 25.992 47.8791 26.424 46.4991 27.288C45.1311 28.14 44.0571 29.304 43.2771 30.78C42.4971 32.244 42.1071 33.9 42.1071 35.748C42.1071 37.644 42.5151 39.336 43.3311 40.824C44.1471 42.3 45.2391 43.464 46.6071 44.316C47.9871 45.156 49.5291 45.576 51.2331 45.576ZM52.8711 40.878C51.4431 40.878 50.2611 40.398 49.3251 39.438C48.3891 38.478 47.9211 37.26 47.9211 35.784C47.9211 34.308 48.3891 33.09 49.3251 32.13C50.2731 31.17 51.4551 30.69 52.8711 30.69C54.2991 30.69 55.4751 31.17 56.3991 32.13C57.3351 33.078 57.8031 34.296 57.8031 35.784C57.8031 37.272 57.3411 38.496 56.4171 39.456C55.4931 40.404 54.3111 40.878 52.8711 40.878ZM69.7033 45H75.2293V37.71L82.5193 45H89.6113L80.1793 35.604L89.1973 26.568H82.0333L75.2293 33.3V14.04H69.7033V45ZM100.954 45.576C102.898 45.576 104.662 45.156 106.246 44.316C107.83 43.476 109.054 42.312 109.918 40.824L105.94 38.826C105.256 39.642 104.542 40.236 103.798 40.608C103.066 40.98 102.22 41.166 101.26 41.166C99.7238 41.166 98.4878 40.74 97.5518 39.888C96.6158 39.036 96.1478 37.908 96.1478 36.504H110.278C110.314 36.192 110.332 35.982 110.332 35.874C110.344 35.754 110.35 35.616 110.35 35.46C110.35 33.576 109.942 31.926 109.126 30.51C108.322 29.094 107.194 27.99 105.742 27.198C104.302 26.394 102.622 25.992 100.702 25.992C98.7818 25.992 97.0478 26.43 95.4998 27.306C93.9638 28.17 92.7398 29.34 91.8278 30.816C90.9158 32.292 90.4598 33.948 90.4598 35.784C90.4598 37.644 90.9158 39.312 91.8278 40.788C92.7518 42.264 94.0058 43.434 95.5898 44.298C97.1738 45.15 98.9618 45.576 100.954 45.576ZM96.3458 33.444C96.4658 32.376 96.9098 31.536 97.6778 30.924C98.4458 30.312 99.4298 30.006 100.63 30.006C101.77 30.006 102.718 30.312 103.474 30.924C104.242 31.536 104.722 32.376 104.914 33.444H96.3458ZM170.443 45H181.117C184.069 45 186.409 44.262 188.137 42.786C189.865 41.31 190.729 39.27 190.729 36.666C190.729 34.614 190.171 32.958 189.055 31.698C187.951 30.438 186.361 29.64 184.285 29.304C186.829 28.032 188.101 25.854 188.101 22.77C188.101 20.286 187.291 18.42 185.671 17.172C184.063 15.924 181.825 15.3 178.957 15.3H170.443V45ZM176.257 27.324V19.818H177.607C180.859 19.818 182.485 21.054 182.485 23.526C182.485 24.762 182.065 25.704 181.225 26.352C180.385 27 179.179 27.324 177.607 27.324H176.257ZM176.257 40.464V32.346H179.137C180.913 32.346 182.269 32.706 183.205 33.426C184.153 34.146 184.627 35.166 184.627 36.486C184.627 39.138 182.797 40.464 179.137 40.464H176.257ZM195.035 45H200.561V34.704C200.561 34.02 200.759 33.384 201.155 32.796C201.563 32.196 202.085 31.71 202.721 31.338C203.369 30.966 204.053 30.78 204.773 30.78C205.817 30.78 206.801 31.08 207.725 31.68L210.029 27.018C209.549 26.718 208.961 26.472 208.265 26.28C207.581 26.088 206.915 25.992 206.267 25.992C205.127 25.992 204.059 26.274 203.063 26.838C202.079 27.39 201.245 28.182 200.561 29.214V26.568H195.035V45ZM222.142 45.576C225.514 45.576 227.938 44.916 229.414 43.596C230.902 42.264 231.646 40.08 231.646 37.044V26.568H226.12V35.748C226.12 37.692 225.82 39.066 225.22 39.87C224.632 40.674 223.606 41.076 222.142 41.076C220.69 41.076 219.664 40.674 219.064 39.87C218.464 39.066 218.164 37.692 218.164 35.748V26.568H212.638V37.044C212.638 40.08 213.382 42.264 214.87 43.596C216.358 44.916 218.782 45.576 222.142 45.576ZM237.715 45H243.241V34.092C243.241 33.024 243.595 32.13 244.303 31.41C245.011 30.678 245.977 30.312 247.201 30.312C248.401 30.312 249.343 30.684 250.027 31.428C250.723 32.16 251.071 33.186 251.071 34.506V45H256.597V33.336C256.597 31.872 256.291 30.594 255.679 29.502C255.067 28.398 254.221 27.54 253.141 26.928C252.073 26.304 250.831 25.992 249.415 25.992C248.143 25.992 246.973 26.238 245.905 26.73C244.837 27.21 243.949 27.84 243.241 28.62V14.04H237.715V45Z" fill="#6169D7"/>
<path d="M126.928 45.576C130.66 45.576 133.474 44.64 135.37 42.768C137.278 40.896 138.232 38.13 138.232 34.47V15.3H132.4V32.796C132.4 35.304 131.968 37.11 131.104 38.214C130.252 39.306 128.86 39.852 126.928 39.852C124.996 39.852 123.598 39.306 122.734 38.214C121.882 37.11 121.456 35.304 121.456 32.796V15.3H115.624V34.47C115.624 38.13 116.578 40.896 118.486 42.768C120.394 44.64 123.208 45.576 126.928 45.576ZM145.043 54.36H150.569V42.57C151.385 43.53 152.351 44.274 153.467 44.802C154.583 45.318 155.771 45.576 157.031 45.576C158.759 45.576 160.307 45.15 161.675 44.298C163.055 43.434 164.141 42.264 164.933 40.788C165.725 39.3 166.121 37.632 166.121 35.784C166.121 33.912 165.719 32.238 164.915 30.762C164.123 29.286 163.031 28.122 161.639 27.27C160.259 26.418 158.681 25.992 156.905 25.992C155.633 25.992 154.445 26.244 153.341 26.748C152.237 27.24 151.313 27.93 150.569 28.818V26.568H145.043V54.36ZM155.393 40.878C153.953 40.878 152.765 40.404 151.829 39.456C150.893 38.496 150.425 37.278 150.425 35.802C150.425 34.326 150.893 33.108 151.829 32.148C152.777 31.176 153.965 30.69 155.393 30.69C156.809 30.69 157.979 31.176 158.903 32.148C159.839 33.108 160.307 34.332 160.307 35.82C160.307 37.296 159.845 38.508 158.921 39.456C157.997 40.404 156.821 40.878 155.393 40.878Z" fill="#AFB5FF"/>
<path d="M275.437 3.75375C273.5 12.5 271.477 20.1947 269.643 28.6325C269.269 30.3507 269.136 32.1937 268.613 33.8686" stroke="#6169D7" stroke-width="6" stroke-linecap="round" stroke-linejoin="round"/>
<path d="M266.087 42.5542C265.895 42.5542 265.713 42.5491 265.593 42.7288C265.454 42.9365 265.414 43.1216 265.418 43.3657C265.424 43.7194 265.934 43.6415 266.106 43.4758C266.258 43.3291 266.283 43.1998 266.216 43.0053C266.183 42.9105 266.142 42.7624 266.037 42.7275" stroke="#6169D7" stroke-width="6" stroke-linecap="round" stroke-linejoin="round"/>
</svg>
